<svg data-content="changed" id="bannerIllustration" xmlns="http://www.w3.org/2000/svg" xmlns:xlink="http://www.w3.org/1999/xlink"
     width="1355.55" height="1002" viewBox="0 0 1355.55 1002">
  <defs>
    <radialGradient id="bannerIllustration_radial-gradient" cx="677.78" cy="-1737.75" r="700.35"
                    gradientTransform="translate(0 1790.98) scale(1 0.74)" gradientUnits="userSpaceOnUse">
      <stop offset="0" stop-color="#f197ff" />
      <stop offset="0.18" stop-color="#e085fa" stop-opacity="0.76" />
      <stop offset="0.4" stop-color="#ce71f4" stop-opacity="0.49" />
      <stop offset="0.6" stop-color="#bf60ef" stop-opacity="0.28" />
      <stop offset="0.78" stop-color="#b555ec" stop-opacity="0.13" />
      <stop offset="0.92" stop-color="#ae4eea" stop-opacity="0.03" />
      <stop offset="1" stop-color="#ac4be9" stop-opacity="0" />
    </radialGradient>
    <linearGradient id="bannerIllustration_linear-gradient" x1="2502.57" y1="97.78" x2="2455.21" y2="127.65"
                    gradientTransform="translate(-1441.27 514.62) rotate(-8.7)" gradientUnits="userSpaceOnUse">
      <stop offset="0" stop-color="#f390fd" />
      <stop offset="0.05" stop-color="#e68ff9" />
      <stop offset="0.3" stop-color="#ac8de7" />
      <stop offset="0.52" stop-color="#7e8bd9" />
      <stop offset="0.72" stop-color="#5d89cf" />
      <stop offset="0.89" stop-color="#4988c8" />
      <stop offset="1" stop-color="#4288c6" />
    </linearGradient>
    <linearGradient id="bannerIllustration_linear-gradient-2" x1="980.23" y1="248.71" x2="1077.71" y2="248.71"
                    gradientUnits="userSpaceOnUse">
      <stop offset="0" stop-color="#35f8fd" />
      <stop offset="0.11" stop-color="#3cf4fd" />
      <stop offset="0.27" stop-color="#50e8fc" />
      <stop offset="0.46" stop-color="#71d6fb" />
      <stop offset="0.67" stop-color="#9ebbfa" />
      <stop offset="0.91" stop-color="#d79af9" />
      <stop offset="1" stop-color="#f08cf8" />
    </linearGradient>
    <clipPath id="bannerIllustration_clip-path">
      <rect x="988.62" y="216.94" width="72.75" height="33.18" transform="translate(-23.53 157.69) rotate(-8.7)"
            fill="none" />
    </clipPath>
    <linearGradient id="bannerIllustration_linear-gradient-3" x1="2502.57" y1="97.77" x2="2455.21" y2="127.64"
                    xlink:href="#bannerIllustration_linear-gradient" />
    <linearGradient id="bannerIllustration_linear-gradient-4" x1="1006.66" y1="278.7" x2="1004.87" y2="280.7"
                    gradientUnits="userSpaceOnUse">
      <stop offset="0" stop-color="#f390fd" />
      <stop offset="1" stop-color="#4288c6" />
    </linearGradient>
    <linearGradient id="bannerIllustration_linear-gradient-5" x1="1071.09" y1="253.84" x2="1066.41" y2="259.05"
                    xlink:href="#bannerIllustration_linear-gradient-4" />
    <linearGradient id="bannerIllustration_linear-gradient-6" x1="985.4" y1="231.77" x2="990.34" y2="236.43"
                    xlink:href="#bannerIllustration_linear-gradient-4" />
    <linearGradient id="bannerIllustration_linear-gradient-7" x1="-6638.86" y1="7691.45" x2="-6640.43" y2="7693.2"
                    gradientTransform="translate(10718.12 3444.8) rotate(67.53)" xlink:href="#bannerIllustration_linear-gradient-4" />
    <linearGradient id="bannerIllustration_linear-gradient-8" x1="-37.42" y1="389.88" x2="81.36" y2="389.88"
                    gradientTransform="translate(660.71 -31.33) rotate(5.68)" xlink:href="#bannerIllustration_linear-gradient-2" />
    <linearGradient id="bannerIllustration_linear-gradient-9" x1="1744.11" y1="490.47" x2="1763.83" y2="358.94"
                    gradientTransform="translate(-1142.26 197.2) rotate(-8.7)" gradientUnits="userSpaceOnUse">
      <stop offset="0" stop-color="#9effe0" />
      <stop offset="1" stop-color="#9effe0" stop-opacity="0" />
    </linearGradient>
    <linearGradient id="bannerIllustration_linear-gradient-10" x1="637.22" y1="531.67" x2="637.2" y2="524.37"
                    gradientTransform="matrix(1, 0, 0, 1, 0, 0)" xlink:href="#bannerIllustration_linear-gradient-9" />
  </defs>
  <g style="isolation: isolate">
    <g id="Layer_2" data-name="Layer 2">
      <g id="Layer_1-2" data-name="Layer 1">
        <g>
          <ellipse cx="677.78" cy="501" rx="677.78" ry="501" opacity="0.71" fill="url(#bannerIllustration_radial-gradient)"
                   style="mix-blend-mode: color-dodge" />
          <g>
            <g>
              <circle cx="1028.97" cy="248.71" r="27.99" fill="url(#bannerIllustration_linear-gradient)" />
              <path
                  d="M1077.7,241.25c-.41-2.7-22.56-1.55-49.48,2.57s-48.39,9.64-48,12.34,22.57,1.55,49.48-2.57S1078.12,244,1077.7,241.25Zm-47.27,10.34c-22.86,3.5-41.64,4.73-41.94,2.74s18-6.43,40.84-9.92,41.64-4.73,41.94-2.74S1053.29,248.1,1030.43,251.59Z"
                  fill="url(#bannerIllustration_linear-gradient-2)" />
              <g clip-path="url(#bannerIllustration_clip-path)">
                <circle cx="1028.97" cy="248.7" r="27.99" fill="url(#bannerIllustration_linear-gradient-3)" />
              </g>
            </g>
            <circle cx="1005.8" cy="279.66" r="1.34" fill="url(#bannerIllustration_linear-gradient-4)" />
            <circle cx="1068.85" cy="256.33" r="3.5" fill="url(#bannerIllustration_linear-gradient-5)" />
            <circle cx="987.95" cy="234.17" r="3.5" fill="url(#bannerIllustration_linear-gradient-6)" />
            <circle cx="1072.36" cy="248.71" r="1.18" fill="url(#bannerIllustration_linear-gradient-7)" />
          </g>
          <g>
            <image width="3675" height="2775" transform="translate(208.22 154) scale(0.27)"
                   xlink:href="./assets/img/" />
            <g>
              <g>
                <path
                    d="M646.13,297.1c33.07-2.09,59,23.86,57.79,57.9s-29,63.4-62.06,65.52-59-23.87-57.8-57.91S613,299.21,646.13,297.1Z"
                    fill="url(#bannerIllustration_linear-gradient-8)" />
                <path
                    d="M675.24,310.09l3,2.16a48.8,48.8,0,0,0-32.25-9.2c-29.88,1.82-55,28.43-56.09,59.14-.61,18.13,7.29,33.74,20,43.09l-2.94-2.17c-12.71-9.31-20.62-24.95-20-43.1,1.06-30.72,26.21-57.27,56.07-59.18A48.73,48.73,0,0,1,675.24,310.09Z"
                    fill="#e494f3" stroke="#910071" stroke-miterlimit="10" />
                <path
                    d="M643.18,294.88c33.07-2.09,59,23.87,57.8,57.91s-29,63.4-62.07,65.51-59-23.87-57.79-57.9S610.09,297,643.18,294.88Zm-4,117.44c29.86-1.89,55-28.44,56.05-59.18s-22.37-54.2-52.24-52.31S588,329.28,586.91,360,609.3,414.22,639.17,412.32Z"
                    fill="#eec2f9" stroke="#910071" stroke-miterlimit="10" />
                <path
                    d="M685.73,310.21l.47.34a58.14,58.14,0,0,1,23.57,48.31c-1.17,34-26.78,63.95-59.88,66.07-12.72.92-29-3.85-39.28-11.36l-4.42-3.25c.54.4,1.1.79,1.66,1.17-.55-.41-1.09-.82-1.62-1.24l-2.94-2.17A53.88,53.88,0,0,0,639,418.29C672,416.2,699.82,386.8,701,352.78c.68-20.08-8.07-37.35-22.13-47.71l2.94,2.17C683.18,308.18,684.44,309.19,685.73,310.21Z"
                    fill="#e494f3" stroke="#910071" stroke-miterlimit="10" />
                <path
                    d="M684.73,358.15a40.93,40.93,0,0,0-81-7.38,41.72,41.72,0,0,0-.74,5.37l8.55,1.78a32.65,32.65,0,0,1,.63-4.77,32.18,32.18,0,0,1,60.55-7.32l-37.17-7.72a12.43,12.43,0,0,0-11.43,3.62,12.07,12.07,0,0,0-3.26,8.72,12.35,12.35,0,0,0,.51,3,12.82,12.82,0,0,0,2.3,4.26,12.36,12.36,0,0,0,3.89,3.12,14.22,14.22,0,0,0,4,1.27L652,366.33a2.47,2.47,0,0,1,1.45,1,2.65,2.65,0,0,1,.45,1.57,2.58,2.58,0,0,1-.52,1.4,2.48,2.48,0,0,1-1,.79,2.58,2.58,0,0,1-1.42.12l-39.24-8s0,0,0,0l-8.74-1.82a40.93,40.93,0,0,0,32.55,37.89h0a40.93,40.93,0,0,0,48.4-31.75,41.44,41.44,0,0,0,.65-4.22l-8.7-1.81a32.19,32.19,0,0,1-61.19,12.17l35.52,7.37a11,11,0,0,0,3.81.25,12.26,12.26,0,0,0,9.67-5.9,11.93,11.93,0,0,0,1.66-6.91,11.34,11.34,0,0,0-.57-2.9,12.34,12.34,0,0,0-6.38-7.25,11.19,11.19,0,0,0-3.42-1.14l-18.66-3.89a2.6,2.6,0,0,1-1.61-1.13,2.49,2.49,0,0,1-.37-1.2,2.5,2.5,0,0,1,3-2.55l38,7.83.42.07s0,0,0,.06Z"
                    fill="#e494f3" stroke="#910071" stroke-miterlimit="10" />
                <path
                    d="M682,354.6a40.93,40.93,0,0,0-81-7.38,39.81,39.81,0,0,0-.74,5.37l8.55,1.78a32.76,32.76,0,0,1,.62-4.78A32.18,32.18,0,0,1,670,342.28l-37.17-7.72a12.39,12.39,0,0,0-11.42,3.62,11.91,11.91,0,0,0-3.26,8.72,12.19,12.19,0,0,0,.5,3,12.72,12.72,0,0,0,2.3,4.25,12.43,12.43,0,0,0,3.9,3.13,14.08,14.08,0,0,0,4,1.27l20.45,4.25a2.52,2.52,0,0,1,1.45,1,2.47,2.47,0,0,1-.06,3,2.4,2.4,0,0,1-1,.79,2.53,2.53,0,0,1-1.42.13l-39.25-8v-.06l-8.75-1.81a41,41,0,0,0,32.55,37.89h0a40.94,40.94,0,0,0,48.4-31.75c.29-1.41.5-2.82.65-4.23l-8.71-1.8a31.28,31.28,0,0,1-.63,4.85A32.17,32.17,0,0,1,611.89,370l35.51,7.38a11.32,11.32,0,0,0,3.81.25,13,13,0,0,0,3.83-.9,12.69,12.69,0,0,0,3.5-2.18,13,13,0,0,0,2.34-2.83,12.24,12.24,0,0,0,1.33-3.22,12.6,12.6,0,0,0,.33-3.68,11.61,11.61,0,0,0-.56-2.9,12.31,12.31,0,0,0-6.39-7.25,11.19,11.19,0,0,0-3.42-1.14l-18.65-3.89a2.6,2.6,0,0,1-1.61-1.13,2.5,2.5,0,0,1-.38-1.21,2.48,2.48,0,0,1,3-2.54l38,7.83.43.06v.07Z"
                    fill="#eec2f9" stroke="#910071" stroke-miterlimit="10" />
              </g>
              <path d="M518.51,279l274.06-.23L637.1,533.53S534,334.69,518.51,279Z" opacity="0.72"
                    fill="url(#bannerIllustration_linear-gradient-9)" />
              <ellipse cx="637.22" cy="531" rx="23" ry="7" fill="url(#bannerIllustration_linear-gradient-10)" />
            </g>
          </g>
          <rect x="351.21" y="128.75" width="663.56" height="769.25" fill="none" />
        </g>
      </g>
    </g>
  </g>
</svg>
